<svg width="65" height="65" viewBox="0 0 65 65" fill="none" xmlns="http://www.w3.org/2000/svg">
<circle cx="32.2425" cy="32.2425" r="32.2425" fill="#05222E"/>
<g filter="url(#filter0_d_1119_207)">
<path d="M33.1984 25.1745C33.3854 22.182 33.6198 36.5779 35.7946 37.4488C36.0238 37.7407 39.0225 37.0901 41.5545 40.9495C44.7195 45.7737 42.1801 41.0867 48.453 37.7541C54.7259 34.4214 41.0417 17.2903 44.2755 24.7261C47.5093 32.1619 33.5038 18.0139 35.7946 22.0853C38.0853 26.1566 31.9665 23.4614 33.1984 25.1745Z" fill="#161820"/>
<path d="M33.1984 25.1745C33.3854 22.182 33.6198 36.5779 35.7946 37.4488C36.0238 37.7407 39.0225 37.0901 41.5545 40.9495C44.7195 45.7737 42.1801 41.0867 48.453 37.7541C54.7259 34.4214 41.0417 17.2903 44.2755 24.7261C47.5093 32.1619 33.5038 18.0139 35.7946 22.0853C38.0853 26.1566 31.9665 23.4614 33.1984 25.1745Z" fill="#F0F0F0"/>
<path d="M33.1984 25.1745C33.3854 22.182 33.6198 36.5779 35.7946 37.4488C36.0238 37.7407 39.0225 37.0901 41.5545 40.9495C44.7195 45.7737 42.1801 41.0867 48.453 37.7541C54.7259 34.4214 41.0417 17.2903 44.2755 24.7261C47.5093 32.1619 33.5038 18.0139 35.7946 22.0853C38.0853 26.1566 31.9665 23.4614 33.1984 25.1745Z" stroke="#161820" stroke-width="1.61182" stroke-linecap="round"/>
<path d="M31.5853 25.1744C31.3983 22.1818 31.1639 36.5778 28.9891 37.4487C28.7599 37.7406 25.7611 37.09 23.2292 40.9494C20.0642 45.7736 22.6036 41.0866 16.3307 37.7539C10.0578 34.4213 23.742 17.2901 20.5082 24.726C17.2744 32.1618 31.2799 18.0138 28.9891 22.0852C26.6984 26.1565 32.8172 23.4613 31.5853 25.1744Z" fill="#161820"/>
<path d="M31.5853 25.1744C31.3983 22.1818 31.1639 36.5778 28.9891 37.4487C28.7599 37.7406 25.7611 37.09 23.2292 40.9494C20.0642 45.7736 22.6036 41.0866 16.3307 37.7539C10.0578 34.4213 23.742 17.2901 20.5082 24.726C17.2744 32.1618 31.2799 18.0138 28.9891 22.0852C26.6984 26.1565 32.8172 23.4613 31.5853 25.1744Z" fill="#F0F0F0"/>
<path d="M31.5853 25.1744C31.3983 22.1818 31.1639 36.5778 28.9891 37.4487C28.7599 37.7406 25.7611 37.09 23.2292 40.9494C20.0642 45.7736 22.6036 41.0866 16.3307 37.7539C10.0578 34.4213 23.742 17.2901 20.5082 24.726C17.2744 32.1618 31.2799 18.0138 28.9891 22.0852C26.6984 26.1565 32.8172 23.4613 31.5853 25.1744Z" stroke="#161820" stroke-width="1.61182" stroke-linecap="round"/>
<path d="M36.1562 42.0266L36.1561 42.0267L36.1678 42.033C36.7627 42.3533 37.4675 42.4873 38.2375 42.4873C38.4986 42.4873 38.7869 42.4673 39.0988 42.4307C39.4123 42.3938 39.7134 42.3384 40.0011 42.2633C40.2874 42.2082 40.5678 42.1333 40.7969 42.0187L41.2424 41.7959V41.2979V38.3573V37.3527L40.2617 37.5706C40.1211 37.6019 39.9897 37.634 39.8685 37.6672C39.8003 37.6742 39.7019 37.6793 39.5672 37.6793C39.4952 37.6793 39.4432 37.6672 39.4014 37.6484C39.3485 37.5924 39.2494 37.4637 39.1151 37.2102C38.9552 36.8566 38.7436 36.3442 38.4789 35.6659L34.9713 26.2966C35.1165 26.2429 35.2481 26.1877 35.3662 26.1304C35.6524 25.9918 36.0023 25.7754 36.1835 25.4109C36.2864 25.204 36.3237 24.9701 36.2795 24.7343C36.2379 24.5124 36.1337 24.3386 36.0347 24.2149C35.8486 23.9824 35.5912 23.8164 35.3868 23.7021C35.1347 23.561 34.831 23.4286 34.5393 23.3105C34.5414 23.3085 34.5435 23.3065 34.5456 23.3045C34.6502 23.2048 34.8043 23.0304 34.8699 22.7773C34.9497 22.469 34.8668 22.1705 34.6904 21.9521C34.5451 21.7722 34.3637 21.6778 34.2514 21.6288C34.0207 21.5282 33.7455 21.4793 33.5178 21.4493C33.0649 21.3898 32.4906 21.3708 32.0175 21.3552C31.9915 21.3543 31.9658 21.3535 31.9404 21.3526C31.8285 21.3489 31.7229 21.3453 31.6246 21.3413C31.6248 21.3409 31.625 21.3405 31.6252 21.3401C31.7087 21.1792 31.8211 20.9625 31.8828 20.793L31.8835 20.7911C31.9133 20.7094 32.0066 20.4532 31.9449 20.1658C31.905 19.9801 31.797 19.7684 31.5811 19.6201C31.384 19.4848 31.1809 19.4608 31.0532 19.4608H31.0532C30.9056 19.4608 30.7761 19.5006 30.7341 19.5135L30.7316 19.5143C30.6652 19.5346 30.596 19.5601 30.5309 19.5857C30.3992 19.6374 30.2398 19.7071 30.0698 19.7845C29.7277 19.9401 29.3012 20.1457 28.886 20.3469C28.8287 20.3747 28.7716 20.4023 28.715 20.4298C28.356 20.6038 28.0135 20.7699 27.7365 20.8994C27.5755 20.9746 27.4456 21.0333 27.3521 21.0725C27.3325 21.0807 27.3161 21.0874 27.3026 21.0927C27.0602 21.1109 26.8286 21.1367 26.6086 21.1706L26.6086 21.1705L26.5986 21.1722C26.3841 21.2079 26.1904 21.2447 26.0193 21.2827L25.8243 21.326L25.6721 21.4555L24.1387 22.7595L24.0333 22.8492L23.9638 22.9688L21.7664 26.754L20.8693 28.2993L22.6214 27.9488C22.7041 27.9323 22.7735 27.9042 22.7879 27.8983C22.7887 27.898 22.7893 27.8978 22.7897 27.8976C22.8178 27.8864 22.8457 27.8741 22.8699 27.8632C22.9192 27.8408 22.9789 27.8123 23.0437 27.7805C23.1745 27.7165 23.3482 27.6287 23.5474 27.5268C23.8469 27.3737 24.214 27.1838 24.5965 26.9858C24.7233 26.9202 24.8518 26.8537 24.9801 26.7874C25.498 26.5197 26.0132 26.2544 26.413 26.0544C26.6136 25.954 26.7795 25.8728 26.8999 25.8167C26.941 25.7976 26.9735 25.7829 26.9983 25.7721C27.1746 25.7507 27.3748 25.7391 27.6005 25.7391C28.1844 25.7391 28.655 25.8291 29.0311 25.9847L29.0311 25.9848L29.0399 25.9883C29.2378 26.0674 29.5148 26.31 29.7525 27.0084L29.7533 27.0106L29.942 27.5594L25.0021 41.1504L24.6091 42.2316H25.7595H29.9274H30.537L30.7029 41.6449L32.4142 35.5913C32.4145 35.5902 32.4148 35.5892 32.4151 35.5881C32.5028 35.2874 32.584 34.9993 32.6586 34.7239C32.7855 35.0416 32.8962 35.3583 32.9909 35.674L32.9934 35.6822L32.996 35.6903L34.0955 39.0911L34.0955 39.0911L34.0978 39.098C34.3004 39.706 34.545 40.2557 34.8361 40.7408C35.1627 41.2852 35.6052 41.7181 36.1562 42.0266ZM31.204 21.0553C31.2188 21.0508 31.2164 21.0524 31.2013 21.0561C31.2023 21.0558 31.2032 21.0555 31.204 21.0553ZM30.3683 20.2415C30.3681 20.2419 30.3679 20.2424 30.3678 20.2429C30.3743 20.2163 30.3786 20.2131 30.3683 20.2415ZM27.2618 21.1082C27.2436 21.1145 27.2456 21.1127 27.2621 21.1081L27.2618 21.1082ZM27.0533 25.7496C27.053 25.7499 27.0481 25.7518 27.0395 25.7547C27.0493 25.7508 27.0536 25.7494 27.0533 25.7496Z" fill="#161820"/>
<path d="M36.1562 42.0266L36.1561 42.0267L36.1678 42.033C36.7627 42.3533 37.4675 42.4873 38.2375 42.4873C38.4986 42.4873 38.7869 42.4673 39.0988 42.4307C39.4123 42.3938 39.7134 42.3384 40.0011 42.2633C40.2874 42.2082 40.5678 42.1333 40.7969 42.0187L41.2424 41.7959V41.2979V38.3573V37.3527L40.2617 37.5706C40.1211 37.6019 39.9897 37.634 39.8685 37.6672C39.8003 37.6742 39.7019 37.6793 39.5672 37.6793C39.4952 37.6793 39.4432 37.6672 39.4014 37.6484C39.3485 37.5924 39.2494 37.4637 39.1151 37.2102C38.9552 36.8566 38.7436 36.3442 38.4789 35.6659L34.9713 26.2966C35.1165 26.2429 35.2481 26.1877 35.3662 26.1304C35.6524 25.9918 36.0023 25.7754 36.1835 25.4109C36.2864 25.204 36.3237 24.9701 36.2795 24.7343C36.2379 24.5124 36.1337 24.3386 36.0347 24.2149C35.8486 23.9824 35.5912 23.8164 35.3868 23.7021C35.1347 23.561 34.831 23.4286 34.5393 23.3105C34.5414 23.3085 34.5435 23.3065 34.5456 23.3045C34.6502 23.2048 34.8043 23.0304 34.8699 22.7773C34.9497 22.469 34.8668 22.1705 34.6904 21.9521C34.5451 21.7722 34.3637 21.6778 34.2514 21.6288C34.0207 21.5282 33.7455 21.4793 33.5178 21.4493C33.0649 21.3898 32.4906 21.3708 32.0175 21.3552C31.9915 21.3543 31.9658 21.3535 31.9404 21.3526C31.8285 21.3489 31.7229 21.3453 31.6246 21.3413C31.6248 21.3409 31.625 21.3405 31.6252 21.3401C31.7087 21.1792 31.8211 20.9625 31.8828 20.793L31.8835 20.7911C31.9133 20.7094 32.0066 20.4532 31.9449 20.1658C31.905 19.9801 31.797 19.7684 31.5811 19.6201C31.384 19.4848 31.1809 19.4608 31.0532 19.4608H31.0532C30.9056 19.4608 30.7761 19.5006 30.7341 19.5135L30.7316 19.5143C30.6652 19.5346 30.596 19.5601 30.5309 19.5857C30.3992 19.6374 30.2398 19.7071 30.0698 19.7845C29.7277 19.9401 29.3012 20.1457 28.886 20.3469C28.8287 20.3747 28.7716 20.4023 28.715 20.4298C28.356 20.6038 28.0135 20.7699 27.7365 20.8994C27.5755 20.9746 27.4456 21.0333 27.3521 21.0725C27.3325 21.0807 27.3161 21.0874 27.3026 21.0927C27.0602 21.1109 26.8286 21.1367 26.6086 21.1706L26.6086 21.1705L26.5986 21.1722C26.3841 21.2079 26.1904 21.2447 26.0193 21.2827L25.8243 21.326L25.6721 21.4555L24.1387 22.7595L24.0333 22.8492L23.9638 22.9688L21.7664 26.754L20.8693 28.2993L22.6214 27.9488C22.7041 27.9323 22.7735 27.9042 22.7879 27.8983C22.7887 27.898 22.7893 27.8978 22.7897 27.8976C22.8178 27.8864 22.8457 27.8741 22.8699 27.8632C22.9192 27.8408 22.9789 27.8123 23.0437 27.7805C23.1745 27.7165 23.3482 27.6287 23.5474 27.5268C23.8469 27.3737 24.214 27.1838 24.5965 26.9858C24.7233 26.9202 24.8518 26.8537 24.9801 26.7874C25.498 26.5197 26.0132 26.2544 26.413 26.0544C26.6136 25.954 26.7795 25.8728 26.8999 25.8167C26.941 25.7976 26.9735 25.7829 26.9983 25.7721C27.1746 25.7507 27.3748 25.7391 27.6005 25.7391C28.1844 25.7391 28.655 25.8291 29.0311 25.9847L29.0311 25.9848L29.0399 25.9883C29.2378 26.0674 29.5148 26.31 29.7525 27.0084L29.7533 27.0106L29.942 27.5594L25.0021 41.1504L24.6091 42.2316H25.7595H29.9274H30.537L30.7029 41.6449L32.4142 35.5913C32.4145 35.5902 32.4148 35.5892 32.4151 35.5881C32.5028 35.2874 32.584 34.9993 32.6586 34.7239C32.7855 35.0416 32.8962 35.3583 32.9909 35.674L32.9934 35.6822L32.996 35.6903L34.0955 39.0911L34.0955 39.0911L34.0978 39.098C34.3004 39.706 34.545 40.2557 34.8361 40.7408C35.1627 41.2852 35.6052 41.7181 36.1562 42.0266ZM31.204 21.0553C31.2188 21.0508 31.2164 21.0524 31.2013 21.0561C31.2023 21.0558 31.2032 21.0555 31.204 21.0553ZM30.3683 20.2415C30.3681 20.2419 30.3679 20.2424 30.3678 20.2429C30.3743 20.2163 30.3786 20.2131 30.3683 20.2415ZM27.2618 21.1082C27.2436 21.1145 27.2456 21.1127 27.2621 21.1081L27.2618 21.1082ZM27.0533 25.7496C27.053 25.7499 27.0481 25.7518 27.0395 25.7547C27.0493 25.7508 27.0536 25.7494 27.0533 25.7496Z" fill="#F0F0F0"/>
<path d="M36.1562 42.0266L36.1561 42.0267L36.1678 42.033C36.7627 42.3533 37.4675 42.4873 38.2375 42.4873C38.4986 42.4873 38.7869 42.4673 39.0988 42.4307C39.4123 42.3938 39.7134 42.3384 40.0011 42.2633C40.2874 42.2082 40.5678 42.1333 40.7969 42.0187L41.2424 41.7959V41.2979V38.3573V37.3527L40.2617 37.5706C40.1211 37.6019 39.9897 37.634 39.8685 37.6672C39.8003 37.6742 39.7019 37.6793 39.5672 37.6793C39.4952 37.6793 39.4432 37.6672 39.4014 37.6484C39.3485 37.5924 39.2494 37.4637 39.1151 37.2102C38.9552 36.8566 38.7436 36.3442 38.4789 35.6659L34.9713 26.2966C35.1165 26.2429 35.2481 26.1877 35.3662 26.1304C35.6524 25.9918 36.0023 25.7754 36.1835 25.4109C36.2864 25.204 36.3237 24.9701 36.2795 24.7343C36.2379 24.5124 36.1337 24.3386 36.0347 24.2149C35.8486 23.9824 35.5912 23.8164 35.3868 23.7021C35.1347 23.561 34.831 23.4286 34.5393 23.3105C34.5414 23.3085 34.5435 23.3065 34.5456 23.3045C34.6502 23.2048 34.8043 23.0304 34.8699 22.7773C34.9497 22.469 34.8668 22.1705 34.6904 21.9521C34.5451 21.7722 34.3637 21.6778 34.2514 21.6288C34.0207 21.5282 33.7455 21.4793 33.5178 21.4493C33.0649 21.3898 32.4906 21.3708 32.0175 21.3552C31.9915 21.3543 31.9658 21.3535 31.9404 21.3526C31.8285 21.3489 31.7229 21.3453 31.6246 21.3413C31.6248 21.3409 31.625 21.3405 31.6252 21.3401C31.7087 21.1792 31.8211 20.9625 31.8828 20.793L31.8835 20.7911C31.9133 20.7094 32.0066 20.4532 31.9449 20.1658C31.905 19.9801 31.797 19.7684 31.5811 19.6201C31.384 19.4848 31.1809 19.4608 31.0532 19.4608H31.0532C30.9056 19.4608 30.7761 19.5006 30.7341 19.5135L30.7316 19.5143C30.6652 19.5346 30.596 19.5601 30.5309 19.5857C30.3992 19.6374 30.2398 19.7071 30.0698 19.7845C29.7277 19.9401 29.3012 20.1457 28.886 20.3469C28.8287 20.3747 28.7716 20.4023 28.715 20.4298C28.356 20.6038 28.0135 20.7699 27.7365 20.8994C27.5755 20.9746 27.4456 21.0333 27.3521 21.0725C27.3325 21.0807 27.3161 21.0874 27.3026 21.0927C27.0602 21.1109 26.8286 21.1367 26.6086 21.1706L26.6086 21.1705L26.5986 21.1722C26.3841 21.2079 26.1904 21.2447 26.0193 21.2827L25.8243 21.326L25.6721 21.4555L24.1387 22.7595L24.0333 22.8492L23.9638 22.9688L21.7664 26.754L20.8693 28.2993L22.6214 27.9488C22.7041 27.9323 22.7735 27.9042 22.7879 27.8983C22.7887 27.898 22.7893 27.8978 22.7897 27.8976C22.8178 27.8864 22.8457 27.8741 22.8699 27.8632C22.9192 27.8408 22.9789 27.8123 23.0437 27.7805C23.1745 27.7165 23.3482 27.6287 23.5474 27.5268C23.8469 27.3737 24.214 27.1838 24.5965 26.9858C24.7233 26.9202 24.8518 26.8537 24.9801 26.7874C25.498 26.5197 26.0132 26.2544 26.413 26.0544C26.6136 25.954 26.7795 25.8728 26.8999 25.8167C26.941 25.7976 26.9735 25.7829 26.9983 25.7721C27.1746 25.7507 27.3748 25.7391 27.6005 25.7391C28.1844 25.7391 28.655 25.8291 29.0311 25.9847L29.0311 25.9848L29.0399 25.9883C29.2378 26.0674 29.5148 26.31 29.7525 27.0084L29.7533 27.0106L29.942 27.5594L25.0021 41.1504L24.6091 42.2316H25.7595H29.9274H30.537L30.7029 41.6449L32.4142 35.5913C32.4145 35.5902 32.4148 35.5892 32.4151 35.5881C32.5028 35.2874 32.584 34.9993 32.6586 34.7239C32.7855 35.0416 32.8962 35.3583 32.9909 35.674L32.9934 35.6822L32.996 35.6903L34.0955 39.0911L34.0955 39.0911L34.0978 39.098C34.3004 39.706 34.545 40.2557 34.8361 40.7408C35.1627 41.2852 35.6052 41.7181 36.1562 42.0266ZM31.204 21.0553C31.2188 21.0508 31.2164 21.0524 31.2013 21.0561C31.2023 21.0558 31.2032 21.0555 31.204 21.0553ZM30.3683 20.2415C30.3681 20.2419 30.3679 20.2424 30.3678 20.2429C30.3743 20.2163 30.3786 20.2131 30.3683 20.2415ZM27.2618 21.1082C27.2436 21.1145 27.2456 21.1127 27.2621 21.1081L27.2618 21.1082ZM27.0533 25.7496C27.053 25.7499 27.0481 25.7518 27.0395 25.7547C27.0493 25.7508 27.0536 25.7494 27.0533 25.7496Z" stroke="#161820" stroke-width="1.61182"/>
</g>
<defs>
<filter id="filter0_d_1119_207" x="7.97559" y="18.6549" width="48.8325" height="33.5634" filterUnits="userSpaceOnUse" color-interpolation-filters="sRGB">
<feFlood flood-opacity="0" result="BackgroundImageFix"/>
<feColorMatrix in="SourceAlpha" type="matrix" values="0 0 0 0 0 0 0 0 0 0 0 0 0 0 0 0 0 0 127 0" result="hardAlpha"/>
<feOffset dy="4"/>
<feGaussianBlur stdDeviation="2"/>
<feComposite in2="hardAlpha" operator="out"/>
<feColorMatrix type="matrix" values="0 0 0 0 0 0 0 0 0 0 0 0 0 0 0 0 0 0 0.25 0"/>
<feBlend mode="normal" in2="BackgroundImageFix" result="effect1_dropShadow_1119_207"/>
<feBlend mode="normal" in="SourceGraphic" in2="effect1_dropShadow_1119_207" result="shape"/>
</filter>
</defs>
</svg>
