<svg width="94" height="128" viewBox="0 0 94 128" fill="none" xmlns="http://www.w3.org/2000/svg">
<g clip-path="url(#clip0_1217_462)">
<path d="M86.805 79.273C86.805 81.4 85.724 83.475 83.771 84.625L57.236 100.542L45.154 107.795L12.919 127.13C9.973 128.873 6.137 127.915 4.376 124.986C3.783 123.992 3.487 122.894 3.487 121.813C3.487 119.686 4.568 117.611 6.521 116.461L33.056 100.544L45.155 93.291L60.567 84.731C68.517 70.766 65.501 57.603 62.485 53.384C62.485 57.376 62.102 57.063 55.738 70.034C57.865 65.78 50.316 46.934 42.645 30.668C44.371 42.907 36.915 66.838 31.394 71.487C31.394 71.487 27.686 65.78 21.55 58.946C20.643 70.104 29.395 81.366 34.416 86.858C34.66 87.12 34.904 87.381 35.131 87.625L35.148 87.642L41.668 91.547L29.568 98.8L3.034 82.882C1.081 81.731 0 79.657 0 77.53C0 76.449 0.296 75.351 0.889 74.357C2.65 71.428 6.485 70.469 9.432 72.213L14.61 75.316L18.48 77.635C18.34 77.443 18.218 77.252 18.096 77.06C11.332 66.11 8.002 49.217 25.785 27.598C20.38 46.933 23.675 50.228 25.088 48.345C26.5 46.445 30.911 39.401 37.344 19.108C40.413 9.449 39 0 39 0C39 0 63.268 29.237 59.276 51.396C62.31 37.379 61.612 31.643 60.723 29.324C64.733 35.496 78.75 59.45 69.51 78.68L77.373 73.955C80.319 72.212 84.155 73.17 85.916 76.099C86.508 77.094 86.805 78.192 86.805 79.273ZM90.745 116.46L60.723 102.286L48.641 109.539L84.346 127.13C87.292 128.873 91.128 127.915 92.889 124.986C93.482 123.992 93.778 122.894 93.778 121.813C93.778 119.686 92.698 117.611 90.745 116.46Z" fill="white"/>
</g>
<defs>
<clipPath id="clip0_1217_462">
<rect width="93.778" height="128" fill="white"/>
</clipPath>
</defs>
</svg>
