<svg id="Layer_1" data-name="Layer 1" xmlns="http://www.w3.org/2000/svg" viewBox="0 0 162.16 156.1">
  <defs>
    <style>
      .cls-1 {
        fill: #a2ffd4;
      }

      .cls-2 {
        fill: #00dad4;
      }

      .cls-3 {
        fill: #005368;
      }

      .cls-4 {
        fill: #b4f0d2;
        stroke: #fff;
        stroke-miterlimit: 10;
      }
    </style>
  </defs>
  <ellipse class="cls-1" cx="100.64" cy="78.77" rx="61.52" ry="61.49"/>
  <ellipse class="cls-1" cx="49.77" cy="79.49" rx="49.77" ry="49.75"/>
  <ellipse class="cls-2" cx="88.88" cy="77.8" rx="72.1" ry="70.5"/>
  <path class="cls-3" d="M169.17,117.91a13.31,13.31,0,0,1-4.55-1.15c-2.46-1.17-6.13-7.1-6.13-14.46,0-16.44,10.68-15.28,10.68-15.28s10.49-.67,10.56,15.44c0,2.22.34,11.62-5.39,14.59a8.54,8.54,0,0,1-4.4.87C169.77,117.92,169.5,117.93,169.17,117.91Z" transform="translate(-19.02 -21.7)"/>
  <path class="cls-3" d="M86.54,63.32v51.91S64.38,117.13,65,101.94C75.78,88,82.11,91.81,82.11,91.81V63.32Z" transform="translate(-19.02 -21.7)"/>
  <path class="cls-4" d="M81.5,71.5" transform="translate(-19.02 -21.7)"/>
  <path class="cls-2" d="M82.42,95s-7-2.54-10.13,8.23,10.13,8,10.13,8Z" transform="translate(-19.02 -21.7)"/>
  <path class="cls-4" d="M124.5,103.5" transform="translate(-19.02 -21.7)"/>
  <path class="cls-3" d="M105.84,115.31S89.44,112.13,91,104.18a33.07,33.07,0,0,1,14.84-13.75v2.39s-21.86,12.33,0,19.59" transform="translate(-19.02 -21.7)"/>
  <path class="cls-3" d="M128.63,91.49c.64,14.56-3.16,16.46-3.16,16.46s-9.5,1.27-10.13-1.9-.92-14.35-.92-14.35H112s-1.72,17.52.81,18.79c3.16,2.53,10.75,2.29,10.75,2.29l-.31,3.72h2.17l.88-3.72s.44-.39,1.7-1.66,4.75-11.71,2.85-18.68" transform="translate(-19.02 -21.7)"/>
  <path class="cls-3" d="M143.5,116.23l-1.57-20.57-7.64-.58V91.23l7.64,1.26,1.57-20s3.18-13.23,7-6.9c3.17,4.43,1.9,5.7,1.9,5.7h-1.9s-.94-3.48-2.21-2.22A17,17,0,0,0,146,71.92l1,20.57,5.63-.95v3.54l-5.63.58-1,20.57Z" transform="translate(-19.02 -21.7)"/>
  <path class="cls-1" d="M169.83,111.08a7.59,7.59,0,0,1-2.66-.67c-1.43-.68-3.57-4.14-3.57-8.44,0-9.59,6.23-8.92,6.23-8.92s6.13-.39,6.17,9c0,1.29.2,6.78-3.15,8.51a5,5,0,0,1-2.57.51Z" transform="translate(-19.02 -21.7)"/>
  <g>
    <path class="cls-3" d="M41.35,85.29l.21-.29a3,3,0,0,0,2,.63c.88,0,1.33-.4,1.33-.85s-.15-.71-1.52-1c-1.1-.22-1.72-.58-1.72-1.21s.53-1.15,1.69-1.15A3,3,0,0,1,45,82l-.22.28a2.48,2.48,0,0,0-1.47-.47c-1,0-1.25.38-1.25.78s.44.69,1.42.89c1.5.31,1.83.66,1.83,1.3S44.62,86,43.48,86A3.72,3.72,0,0,1,41.35,85.29Z" transform="translate(-19.02 -21.7)"/>
    <path class="cls-3" d="M48.94,84.25V81.89H47.63v-.31l1.32,0,0-1.43h.34v1.43h2.3v.35h-2.3v2.39c0,.84.24,1.34,1.2,1.34a2.88,2.88,0,0,0,1.15-.22l.11.31a3.43,3.43,0,0,1-1.31.26C49.3,86,48.94,85.28,48.94,84.25Z" transform="translate(-19.02 -21.7)"/>
    <path class="cls-3" d="M54,84.24v-2.7h.4v2.64c0,1,.36,1.43,1.22,1.43a2.16,2.16,0,0,0,1.65-1v-3.1h.4v4.33h-.34l0-.84h0a2.28,2.28,0,0,1-1.71.94C54.5,86,54,85.41,54,84.24Z" transform="translate(-19.02 -21.7)"/>
    <path class="cls-3" d="M60.12,83.71a2.11,2.11,0,0,1,2-2.27,2.06,2.06,0,0,1,1.42.61h0l0-.88V79.39H64v6.48h-.34l0-.65h0A2.23,2.23,0,0,1,62,86C60.89,86,60.12,85.17,60.12,83.71Zm3.45,1.12v-2.4a2,2,0,0,0-1.39-.64,1.78,1.78,0,0,0-1.64,1.92c0,1.15.58,1.91,1.54,1.91A2.13,2.13,0,0,0,63.57,84.83Z" transform="translate(-19.02 -21.7)"/>
    <path class="cls-3" d="M68.85,81.89H66.69v-.35h2.56v4.33h-.4Zm-.31-1.83a.42.42,0,1,1,.84,0,.42.42,0,1,1-.84,0Z" transform="translate(-19.02 -21.7)"/>
    <path class="cls-3" d="M72.72,83.71A2.1,2.1,0,1,1,74.81,86,2.09,2.09,0,0,1,72.72,83.71Zm3.77,0a1.69,1.69,0,1,0-1.68,1.91A1.73,1.73,0,0,0,76.49,83.71Z" transform="translate(-19.02 -21.7)"/>
  </g>
  <path class="cls-1" d="M49,56.26s55.11-77.75,113,0C150.43,61.74,143.39,54,143.39,54S93.49,13.18,46,63C33.5,62.64,49,56.26,49,56.26Z" transform="translate(-19.02 -21.7)"/>
  <path class="cls-1" d="M48.81,143.24S104,221,162,143.24c-11.59-5.48-18.65,2.26-18.65,2.26s-50,40.82-97.56-9C33.25,136.86,48.81,143.24,48.81,143.24Z" transform="translate(-19.02 -21.7)"/>
</svg>
